# xmcd CD database file
#
# Track frame offsets:
#	150
#	13105
#	30823
#	46325
#	67073
#	80890
#	95405
#	107220
#	126083
#	149200
#	167813
#	186200
#	201095
#	215975
#	225748
#	247630
#
# Disc length: 3347 seconds
#
# Revision: 2
# Processed by: cddbd v1.5.1PL0 Copyright (c) Steve Scherf et al.
# Submitted via: CDex 1.51
#
DISCID=e90d1110
DTITLE=James Mathus and His Knockdown Society - National Antiseptic
DYEAR=2001
DGENRE=Blues
TTITLE0=Call Your Dawgs Off
TTITLE1=Take A Ride With Me
TTITLE2=Snake Drive
TTITLE3=Drinkin' Antiseptic
TTITLE4=Stranger
TTITLE5=Innit for the Money
TTITLE6=Shake It and Break It
TTITLE7=Rock of Ages
TTITLE8=Boogie
TTITLE9=Issaqueena St. Shuffle
TTITLE10=Spare Change
TTITLE11=Chicken Town
TTITLE12=Hambone
TTITLE13=Back To The Bottoms
TTITLE14=Nightingale
TTITLE15=Data Track
EXTD=YEAR: 2001
EXTT0=
EXTT1=
EXTT2=
EXTT3=
EXTT4=
EXTT5=
EXTT6=
EXTT7=
EXTT8=
EXTT9=
EXTT10=
EXTT11=
EXTT12=
EXTT13=
EXTT14=
EXTT15=
PLAYORDER=
